# xmcd
# 
# Track frame offsets:
#     150
#     19503
#     32555
#     47783
#     57894
#     87116
#     95776
#     119843
#     133537
#     145831
#     163645
#     174236
#     187642
#     203770
#     219178
#     234043
# 
# Disc length: 3295
# 
# Revision: 0
# Processed by: cddbd v1.5.2PL0 Copyright (c) Steve Scherf et al.
# Submitted via: fre:ac v1.0.17
# 
DISCID=c90cdd10
DTITLE=Milton Hopkins with Jewel Brown - Texas Breeze
DYEAR=2012
DGENRE=Blues
TTITLE0=Jerry
TTITLE1=Can't Get Enough Of You
TTITLE2=Daddy Daddy
TTITLE3=The Whale Has Swallowed Me
TTITLE4=Evening Breeze
TTITLE5=There's a Light
TTITLE6=Cry Me a River
TTITLE7=I'm Shakin'
TTITLE8=Back To The Shimmy
TTITLE9=I'm Leaving You
TTITLE10=How Can I Lose
TTITLE11=Tater Tots
TTITLE12=Tribute To Elmore
TTITLE13=Bubble Up
TTITLE14=Like To Live The Love
TTITLE15=Movin'On Out
EXTD=
EXTT0=
EXTT1=
EXTT2=
EXTT3=
EXTT4=
EXTT5=
EXTT6=
EXTT7=
EXTT8=
EXTT9=
EXTT10=
EXTT11=
EXTT12=
EXTT13=
EXTT14=
EXTT15=
PLAYORDER=
